<?xml version="1.0" standalone="no"?>
<!DOCTYPE svg PUBLIC "-//W3C//DTD SVG 20010904//EN"
 "http://www.w3.org/TR/2001/REC-SVG-20010904/DTD/svg10.dtd">
<svg version="1.0" xmlns="http://www.w3.org/2000/svg"
 width="1080.000000pt" height="1080.000000pt" viewBox="0 0 1080.000000 1080.000000"
 preserveAspectRatio="xMidYMid meet">
<metadata>
Created by potrace 1.11, written by Peter Selinger 2001-2013
</metadata>
<g transform="translate(0.000000,1080.000000) scale(0.100000,-0.100000)"
fill="#000000" stroke="none">
<path d="M1309 10796 c-2 -2 -31 -7 -63 -10 -32 -4 -62 -8 -65 -10 -3 -2 -23
-7 -43 -10 -73 -11 -255 -79 -359 -133 -162 -83 -333 -221 -439 -352 -19 -24
-40 -48 -45 -55 -10 -11 -67 -97 -101 -151 -52 -85 -137 -296 -150 -375 -3
-14 -7 -33 -10 -42 -7 -22 -12 -49 -23 -129 -11 -72 -10 -8235 1 -8284 4 -16
9 -46 13 -65 48 -271 197 -550 402 -755 224 -224 538 -378 838 -413 83 -10
8216 -9 8289 1 32 4 62 9 65 11 3 2 23 7 43 10 52 8 233 70 304 103 292 140
527 367 672 651 71 139 122 290 139 412 3 19 9 55 14 80 10 55 6 8229 -4 8285
-77 409 -265 718 -583 956 -130 97 -400 221 -529 242 -29 5 -50 9 -110 24 -30
8 -8248 16 -8256 9z"/>
</g>
</svg>
