<svg width="617" height="302" viewBox="0 0 617 302" fill="none" xmlns="http://www.w3.org/2000/svg">
<path d="M57.2005 90.8138C51.1015 74.1218 42.4345 54.8618 33.7675 39.1328L2.6305 52.6148C13.5445 75.4058 25.1005 104.938 29.2735 124.198L57.2005 110.716V172.027C35.6935 185.509 14.1865 197.707 0.0625 205.411L17.0755 245.215C29.9155 235.906 43.7185 225.313 57.2005 214.72V300.106H94.4365V0.933807H57.2005V90.8138ZM261.677 0.612793C222.836 12.1688 159.6 21.4778 103.424 26.6138C106.956 34.3178 111.77 48.1208 113.054 56.7878C170.834 52.6148 238.244 43.6268 287.036 29.8238L261.677 0.612793ZM219.306 108.79C217.701 94.0238 210.639 70.5908 202.935 52.9358L169.872 61.6028C177.255 79.8998 183.354 103.333 184.317 118.42L219.306 108.79ZM164.415 120.025C160.884 104.296 149.97 81.1838 139.377 63.5288L109.202 74.4428C119.153 93.0608 128.784 117.457 131.994 132.544L164.415 120.025ZM124.289 205.411C138.413 222.745 155.105 246.499 161.205 261.907L194.589 243.61C187.206 227.881 169.872 205.411 155.105 189.361L124.289 205.411ZM303.086 151.804H261.677V131.581H252.369C267.456 112.963 284.147 88.8878 298.271 65.7758L262.961 49.4048C251.084 74.4428 229.899 106.864 213.207 127.408L223.8 132.865V151.804H104.387V187.114H223.8V258.055C223.8 262.228 222.516 263.191 217.059 263.512C211.602 263.833 193.625 263.833 176.934 262.87C182.07 273.463 187.206 289.513 188.811 300.106C213.528 300.106 232.146 299.785 244.665 293.686C258.147 288.229 261.677 277.957 261.677 258.697V187.114H303.086V151.804Z" fill="#FF005C"/>
<path d="M402.917 189.682V172.348H455.561V189.682H402.917ZM402.917 130.618H455.561V147.631H402.917V130.618ZM548.651 130.618V147.631H493.118V130.618H548.651ZM548.651 189.682H493.118V172.348H548.651V189.682ZM616.062 232.375H493.118V216.004H586.208V104.296H493.118V90.1718H561.492V62.2448H493.118V46.8368H574.331V84.3938H612.852V14.4158H336.792V84.3938H373.385V46.8368H455.561V62.2448H385.904V90.1718H455.561V104.296H366.965V216.004H455.561V232.375H334.544V266.401H455.561V301.069H493.118V266.401H616.062V232.375Z" fill="#FF005C"/>
</svg>
