<svg width="304" height="618" viewBox="0 0 304 618" fill="none" xmlns="http://www.w3.org/2000/svg">
<path d="M79.4743 506.739V489.432H132.038V506.739H79.4743ZM79.4743 447.765H132.038V464.752H79.4743V447.765ZM224.987 447.765V464.752H169.538V447.765H224.987ZM224.987 506.739H169.538V489.432H224.987V506.739ZM292.295 549.367H169.538V533.021H262.487V421.483H169.538V407.38H237.808V379.496H169.538V364.111H250.628V401.611H289.09V331.739H13.4487V401.611H49.9871V364.111H132.038V379.496H62.4871V407.38H132.038V421.483H43.5768V533.021H132.038V549.367H11.2051V583.342H132.038V617.957H169.538V583.342H292.295V549.367Z" fill="#FF005C"/>
<path d="M57.5191 90.2272C51.4293 73.5605 42.7755 54.3298 34.1216 38.6246L3.03188 52.0862C13.9293 74.8426 25.4678 104.33 29.6344 123.561L57.5191 110.099V171.317C36.0447 184.778 14.5703 196.958 0.467773 204.65L17.455 244.394C30.2755 235.099 44.0575 224.522 57.5191 213.945V299.202H94.6985V0.483613H57.5191V90.2272ZM261.686 0.163086C222.904 11.7016 159.763 20.9964 103.673 26.1246C107.199 33.8169 112.006 47.599 113.288 56.2528C170.981 52.0862 238.288 43.1118 287.006 29.3298L261.686 0.163086ZM219.378 108.176C217.775 93.4323 210.724 70.0349 203.032 52.4067L170.019 61.0605C177.391 79.3298 183.481 102.727 184.442 117.791L219.378 108.176ZM164.57 119.394C161.045 103.689 150.147 80.6118 139.57 62.9836L109.442 73.881C119.378 92.4708 128.993 116.83 132.199 131.894L164.57 119.394ZM124.506 204.65C138.609 221.958 155.275 245.676 161.365 261.061L194.699 242.791C187.327 227.086 170.019 204.65 155.275 188.625L124.506 204.65ZM303.032 151.125H261.686V130.932H252.391C267.455 112.343 284.122 88.3041 298.224 65.2272L262.968 48.881C251.109 73.881 229.955 106.253 213.288 126.766L223.865 132.214V151.125H104.634V186.381H223.865V257.214C223.865 261.381 222.583 262.343 217.134 262.663C211.686 262.984 193.737 262.984 177.07 262.022C182.199 272.599 187.327 288.625 188.929 299.202C213.609 299.202 232.199 298.881 244.699 292.791C258.16 287.343 261.686 277.086 261.686 257.855V186.381H303.032V151.125Z" fill="#FF005C"/>
</svg>
