<svg width="1025" height="163" viewBox="0 0 1025 163" fill="none" xmlns="http://www.w3.org/2000/svg">
<path d="M71.6504 162.86C125.308 162.86 149.155 145.517 149.155 110.829C149.155 81.0195 131.486 66.9277 93.6553 63.5674L61.4609 61.1826C52.0303 60.4238 47.2607 56.5215 47.2607 49.584C47.2607 45.4648 49.3203 42.3213 53.3311 40.2617C57.3418 38.2021 64.4961 37.2266 75.0107 37.2266C84.6582 37.2266 91.5957 38.4189 96.04 40.6953C100.484 43.0801 103.52 47.6328 105.362 54.2451H146.662C145.47 32.1318 137.448 17.1729 123.573 10.127C116.636 6.5498 109.59 4.16504 102.327 2.75586C95.0645 1.45508 86.3926 0.804688 76.5283 0.804688C50.6211 0.804688 31.8682 4.92383 20.0527 13.0537C8.2373 21.292 2.38379 33.541 2.38379 49.8008C2.38379 78.96 19.9443 94.8945 55.1738 97.6045L87.585 99.9893C98.8584 100.856 103.194 104.867 103.194 112.238C103.194 116.899 101.026 120.477 96.6904 122.97C92.2461 125.463 84.6582 126.655 73.8184 126.655C54.6318 126.655 43.792 121.994 41.1904 109.528H0.107422C1.4082 131.533 9.10449 146.167 22.9795 153.43C29.8086 157.007 37.0713 159.5 44.6592 160.909C52.1387 162.21 61.1357 162.86 71.4336 162.86H71.6504Z" fill="white"/>
<path d="M305.249 159.5V120.477H221.565L305.249 43.1885V4.05664H169.426V43.1885H251.158L167.475 120.477V159.5H305.249Z" fill="white"/>
<path d="M469.473 139.88C484.757 124.596 492.345 105.192 492.345 81.7783C492.345 58.4727 484.757 39.0693 469.473 23.7852C454.188 8.50098 433.593 0.804688 407.577 0.804688C381.453 0.804688 360.857 8.50098 345.573 23.7852C330.289 39.0693 322.701 58.4727 322.701 81.7783C322.701 105.192 330.289 124.596 345.573 139.88C360.857 155.164 381.453 162.86 407.577 162.86C433.593 162.86 454.188 155.164 469.473 139.88ZM378.418 111.263C371.48 104 368.012 94.2441 368.012 81.7783C368.012 69.3125 371.48 59.4482 378.418 52.1855C385.247 44.9229 395.003 41.3457 407.577 41.3457C420.151 41.3457 429.907 44.9229 436.736 52.1855C443.565 59.4482 447.034 69.3125 447.034 81.7783C447.034 94.2441 443.565 104 436.736 111.263C429.907 118.525 420.151 122.211 407.577 122.211C395.003 122.211 385.247 118.525 378.418 111.263Z" fill="white"/>
<path d="M621.881 105.301V118.851C615.16 122.428 606.705 124.162 596.516 124.162C581.015 124.162 569.524 120.368 562.153 112.78C554.674 105.301 550.988 95.2197 550.988 82.6455C550.988 70.0713 554.565 59.9902 561.72 52.5107C568.766 45.0312 578.738 41.3457 591.421 41.3457C607.355 41.3457 617.111 47.416 620.688 59.5566H664.698C662.422 41.8877 654.834 27.5791 641.718 16.8477C628.602 6.11621 611.475 0.804688 590.12 0.804688C564.43 0.804688 543.942 8.50098 528.658 23.8936C513.374 39.3945 505.678 58.7979 505.678 82.2119C505.678 105.734 513.266 125.138 528.55 140.205C543.834 155.272 565.08 162.86 592.505 162.86C623.182 162.86 647.246 153.43 664.698 134.46V71.8057H589.145V105.301H621.881Z" fill="white"/>
<path d="M765.184 162.86C791.85 162.86 811.253 156.465 823.285 143.674C835.317 130.883 841.388 112.455 841.388 88.499V4.05664H796.511V88.2822C796.511 110.938 786.104 122.211 765.184 122.211C744.154 122.211 733.64 110.938 733.64 88.2822V4.05664H689.088V88.499C689.088 112.455 695.05 130.774 707.082 143.565C719.006 156.465 738.409 162.86 765.184 162.86Z" fill="white"/>
<path d="M910.112 159.5V72.6729L909.896 55.3291H912.389L966.263 159.5H1024.26V4.05664H979.596V90.8838L979.812 108.228H977.428L923.445 4.05664H865.561V159.5H910.112Z" fill="white"/>
</svg>
