<svg width="1622" height="351" viewBox="0 0 1622 351" fill="none" xmlns="http://www.w3.org/2000/svg">
<path fill-rule="evenodd" clip-rule="evenodd" d="M267.396 287.869V340.297H506.136V252.316H297.547L267.396 287.869Z" fill="#FF1010"/>
<path fill-rule="evenodd" clip-rule="evenodd" d="M505.914 87.8319L506.139 87.6069V0.0761719H267.398V87.8319H505.914Z" fill="#FF1010"/>
<path d="M335.917 335.193L506.03 87.6074L437.04 40.205L266.927 287.79L335.917 335.193Z" fill="#FF1010"/>
<path fill-rule="evenodd" clip-rule="evenodd" d="M1058.1 126.984V341.648H953.015C883.711 341.648 826.782 284.72 826.782 215.415V0.0761719H1057.87V87.8319H914.763V215.415C914.763 236.567 932.314 254.118 953.69 254.118H970.342V126.984H1058.1Z" fill="#FF1010"/>
<path fill-rule="evenodd" clip-rule="evenodd" d="M1621.99 0.0761719V341.648H1534.45V239.492L1469.65 166.587V341.648H1382.12V0.0761719H1469.65V34.9534L1534.45 107.633V0.0761719H1621.99Z" fill="#FF1010"/>
<path fill-rule="evenodd" clip-rule="evenodd" d="M94.584 125.41H231.618V214.291C231.618 283.146 175.139 340.524 105.385 340.524H0.75293V252.769H105.385C126.761 252.769 144.312 235.217 144.312 214.066V213.391H86.0335C42.3806 213.391 7.05334 177.614 7.05334 134.636V125.86C7.27835 56.3308 63.532 0.0771484 133.062 0.0771484H231.843V87.8328H132.387C111.46 87.8328 94.584 104.709 94.584 125.41Z" fill="#FF1010"/>
<path fill-rule="evenodd" clip-rule="evenodd" d="M1346.57 0.0761719V224.641C1346.57 293.945 1289.64 350.874 1220.33 350.874C1151.03 350.874 1094.1 293.945 1094.1 224.641V189.088H1093.65V78.8313L1094.1 0.0761719H1180.96V225.091C1180.96 246.242 1198.51 263.793 1219.88 263.793C1241.26 263.793 1258.81 246.242 1258.81 225.091V0.0761719H1346.57Z" fill="#FF1010"/>
<path fill-rule="evenodd" clip-rule="evenodd" d="M667.923 0.0761719C598.618 0.0761719 541.689 57.0049 541.689 126.309V341.648H664.322C733.627 341.648 790.556 284.72 790.556 215.415V179.863H791.006V0.0761719H667.923ZM702.575 214.965C702.575 236.117 685.024 253.668 663.647 253.668H628.545V126.309C628.545 105.158 646.096 87.6069 667.473 87.6069H702.575V214.965Z" fill="#FF1010"/>
<path d="M94.808 125.637H7.27734V213.167H94.808V125.637Z" fill="#FF1010"/>
</svg>
